<mxfile host="app.diagrams.net" modified="2024-02-03T18:23:56.686Z" agent="Mozilla/5.0 (Macintosh; Intel Mac OS X 10_15_7) AppleWebKit/537.36 (KHTML, like Gecko) Chrome/120.0.0.0 Safari/537.36" etag="A-LZsZshPODpLUmA-uNS" version="23.0.2" type="device">
  <diagram name="Page-1" id="kzN5g9jG_qKj0ZtEjBCK">
    <mxGraphModel dx="1139" dy="642" grid="1" gridSize="10" guides="1" tooltips="1" connect="1" arrows="1" fold="1" page="1" pageScale="1" pageWidth="850" pageHeight="1100" math="0" shadow="0">
      <root>
        <mxCell id="0" />
        <mxCell id="1" parent="0" />
        <mxCell id="YCkWu_KtxwozdB4lv093-1" value="" style="ellipse;whiteSpace=wrap;html=1;aspect=fixed;strokeWidth=8;" parent="1" vertex="1">
          <mxGeometry x="27.5" y="18" width="183.5" height="183.5" as="geometry" />
        </mxCell>
        <mxCell id="poiL8o0s2GacrHepeqyQ-11" value="" style="endArrow=none;html=1;rounded=0;exitX=1;exitY=0;exitDx=0;exitDy=0;strokeColor=#000000;strokeWidth=7;entryX=0;entryY=1;entryDx=0;entryDy=0;" parent="1" target="poiL8o0s2GacrHepeqyQ-12" edge="1">
          <mxGeometry width="50" height="50" relative="1" as="geometry">
            <mxPoint x="67.60660171779818" y="127.89339828220182" as="sourcePoint" />
            <mxPoint x="90" y="80" as="targetPoint" />
          </mxGeometry>
        </mxCell>
        <mxCell id="poiL8o0s2GacrHepeqyQ-12" value="" style="ellipse;whiteSpace=wrap;html=1;aspect=fixed;strokeWidth=5;strokeColor=#000000;fillColor=#673147;" parent="1" vertex="1">
          <mxGeometry x="95" y="48.5" width="30" height="30" as="geometry" />
        </mxCell>
        <mxCell id="poiL8o0s2GacrHepeqyQ-13" value="" style="ellipse;whiteSpace=wrap;html=1;aspect=fixed;strokeWidth=5;strokeColor=#000000;fillColor=#673147;" parent="1" vertex="1">
          <mxGeometry x="46" y="122.5" width="30" height="30" as="geometry" />
        </mxCell>
        <mxCell id="poiL8o0s2GacrHepeqyQ-14" value="" style="ellipse;whiteSpace=wrap;html=1;aspect=fixed;strokeWidth=5;strokeColor=#000000;fillColor=#673147;" parent="1" vertex="1">
          <mxGeometry x="145" y="122.5" width="30" height="30" as="geometry" />
        </mxCell>
        <mxCell id="poiL8o0s2GacrHepeqyQ-15" value="" style="endArrow=none;html=1;rounded=0;entryX=1;entryY=1;entryDx=0;entryDy=0;exitX=0;exitY=0;exitDx=0;exitDy=0;fontColor=#6600CC;strokeColor=#000000;strokeWidth=7;" parent="1" source="poiL8o0s2GacrHepeqyQ-14" target="poiL8o0s2GacrHepeqyQ-12" edge="1">
          <mxGeometry width="50" height="50" relative="1" as="geometry">
            <mxPoint x="86" y="136.5" as="sourcePoint" />
            <mxPoint x="119" y="90.5" as="targetPoint" />
          </mxGeometry>
        </mxCell>
        <mxCell id="poiL8o0s2GacrHepeqyQ-10" value="&lt;font color=&quot;#000000&quot; style=&quot;font-size: 45px;&quot;&gt;Py&lt;/font&gt;" style="text;html=1;strokeColor=none;fillColor=none;align=center;verticalAlign=middle;whiteSpace=wrap;rounded=0;strokeWidth=0;fontSize=25;fontColor=#00CC00;" parent="1" vertex="1">
          <mxGeometry x="124" y="43.5" width="85.75" height="80" as="geometry" />
        </mxCell>
      </root>
    </mxGraphModel>
  </diagram>
</mxfile>
